<?xml version="1.0" encoding="utf-8"?>
<!-- Generator: Adobe Illustrator 24.3.0, SVG Export Plug-In . SVG Version: 6.00 Build 0)  -->
<svg version="1.1" id="Layer_1" xmlns="http://www.w3.org/2000/svg" xmlns:xlink="http://www.w3.org/1999/xlink" x="0px" y="0px"
	 viewBox="0 0 464.9 830.2" style="enable-background:new 0 0 464.9 830.2;" xml:space="preserve">
<style type="text/css">
	.st0{stroke:#000000;stroke-miterlimit:10;}
	.st1{fill:none;stroke:#006837;stroke-width:0.75;stroke-miterlimit:10;}
	.st2{fill:none;stroke:#FA80D4;stroke-miterlimit:10;}
	.st3{stroke:#000000;stroke-width:0.75;stroke-miterlimit:10;}
	.st4{fill:#F63E19;}
	.st5{fill:#FFFFFF;}
	.st6{fill:#074272;stroke:#FFFFFF;stroke-miterlimit:10;}
	.st7{opacity:5.000000e-02;}
</style>
<g>
	<g>
		<g>
			<g>
				<path d="M85.8,141.2c8.5,3.6,17.2,6.9,26,9.9c7.7,2.6,15.6,4.6,23,7.9c9.8,4.3,19.2,9.8,27.3,16.8
					c23.8,20.7,40.5,48.3,52.1,77.3c14.7,36.4,24.5,74.7,31.2,113.4c5.2,30.4,8.4,61.1,9.9,91.8c1.3,27.1,1.4,54.3,0.3,81.5
					c-0.1,3.4-0.3,6.7-0.4,10.1c-0.1,1.9,2.9,1.9,3,0c1.4-28,1.6-56,0.5-84c-1.2-29.6-3.9-59.1-8.5-88.4
					c-6-38.7-15.1-77.1-28.7-113.8c-6.9-18.5-14.7-36.5-25.6-53c-7.7-11.8-16.7-22.9-26.9-32.6c-8.2-7.8-17.1-13.9-27.2-19.1
					c-13-6.6-27.3-9.9-40.8-15c-4.8-1.8-9.6-3.7-14.4-5.7C84.8,137.6,84,140.5,85.8,141.2L85.8,141.2z"/>
			</g>
		</g>
		<g>
			<g>
				<path d="M234.3,585c1.7-28,3.5-55.9,5.4-83.8c1.6-22.6,3.1-45.3,5.1-67.8c1.4-15.1,3.7-29.8,6.4-44.7c5-26.7,12.1-52.8,24-77.2
					c10.7-21.9,24.6-42.3,40.9-60.4c2.5-2.8,5.1-5.6,7.8-8.3c1-1-0.6-2.6-1.6-1.6c-17.7,18.2-33.1,38.7-45,61.2
					c-12.7,23.9-21.1,49.7-26.5,76.2c-3.2,15.9-6.1,31.9-7.7,48c-2.2,21.9-3.6,43.8-5.1,65.8c-1.9,27-3.7,54-5.4,80.9
					c-0.2,3.9-0.5,7.9-0.7,11.8C231.9,586.5,234.2,586.5,234.3,585L234.3,585z"/>
			</g>
		</g>
		<path class="st0" d="M199.9,221.2c1.5-16.1-46.1,5-48.7,6.4c-11.8,6.4-14.5,20-18.6,28.7c-7.5,16-3,20.8-11.7,34.5
			c-2.4,3.7-9.8,14.1-7.8,16.7c0.9,1.2,15.1-2.2,16.1-2.2c9.8-0.5,11.7-9.5,17.3-12.2c15.2-7.4,21-0.7,33.4-7.8
			c8.7-5,13.2-9.9,15.6-21.7C195.9,261.3,197.7,245.1,199.9,221.2z"/>
		<path class="st1" d="M76.3,147.8"/>
		<path class="st2" d="M200,201.6"/>
		<path class="st0" d="M265.9,346.2c3.6-0.9,10.5-3.2,17.1-8.9c6-5.2,9.1-10.9,10.6-14.2c-2-0.8-6.1-2.1-11.4-1.4
			c-4.6,0.5-7.9,2.3-9.7,3.4c-1.5,1.5-4.2,4.6-5.8,9.3C265,339.5,265.5,344,265.9,346.2z"/>
		<path class="st0" d="M180.3,188.1c-0.5-3.4-1.6-11.2,2.7-19.7c1.1-2.2,3.4-6.5,8.1-9.9c3.2-2.2,5.4-2.6,11.6-4.5
			c9.2-2.8,13.8-4.1,17.9-6.3c6.3-3.3,13.5-8.8,16.1-10.8c3.5-2.7,4.9-4,5.4-3.6c1.2,0.9-4.8,11.5-12.5,20.6
			c-7.3,8.5-14.9,14.1-18.8,17c-11.5,8.4-16,8.8-20.6,16.1c-3.2,5.1-4.3,10.1-6.3,9.9C181.6,196.9,180.6,190.2,180.3,188.1z"/>
		<path class="st3" d="M268.2,345c26.5-14,49.9-10.1,49.9-10.1c16.8,2.8,35.4,11.6,34.6,17.7c-0.1,0.7-0.5,1.9-11.7,7.5
			c-10.9,5.4-16.3,8.1-20.2,8.4c-8,0.6-14.6-2.7-23.2-7c-5.4-2.7-7.1-4.3-14.8-7.8c-6.2-2.8-9.3-4.3-12.7-4.6
			c-2.3-0.3-5-0.2-5.2-1.2C264.5,346.9,267.3,345.5,268.2,345z"/>
		<path class="st3" d="M266.2,315.5c-0.1-9.3-0.2-26.8-12.1-42.5c-10.5-13.9-26.8-21.9-28.5-20c-0.8,0.9,1.5,3.9,3.9,7.6
			c3.5,5.3,5.1,8.8,15.7,36.5c13.1,34.4,14.9,40.2,17.1,39.9C265.7,336.5,266.2,321.5,266.2,315.5z"/>
		<g>
			<g>
				<g>
					<g id="XMLID_1_">
						<g>
							<path class="st4" d="M400.8,225.7c3.1,6.5,3.5,14.1,1.3,21c-2.2,7.1-7.1,13.1-13.5,16.8c-5.7,3.2-12.6,4.5-19,3.6
								c-3.1-0.5-5.9-1.5-8.5-3.1c-1.7-1.1-3.4-2.3-5-3.6c-1.3-1.1-2.5-2.4-3.8-3.6c-1.4-1.3-2.9-2.3-4.5-3.3c-1.6-1-3.2-2-4.9-2.6
								c-1.7-0.6-3.4-0.8-5.1-1.3c-1.7-0.5-2.1-2.2-1.9-3.8c0.2-1.8,0.8-3.6,1.4-5.3c1.1-3.7,2.1-7.4,3.4-11.1
								c0.9-2.4,1.8-4.9,3.3-7c3.6-5.3,9.6-9,15.6-10.9c3.9-1.2,7.9-1.7,12-1.7c5.6,0,11.2,1,16.3,3.3
								C393.4,215.7,398.1,220,400.8,225.7z"/>
							<path class="st4" d="M402.1,246.7c2.1-6.9,1.7-14.5-1.3-21c-2.7-5.7-7.4-10-13.1-12.6c-5.1-2.3-10.7-3.3-16.3-3.3
								c-4.1,0-8.1,0.4-12,1.7c-6,1.9-12,5.6-15.6,10.9c-1.4,2.1-2.4,4.6-3.3,7c-1.3,3.6-2.3,7.4-3.4,11.1c0.1-0.2-0.3-0.3-0.4-0.1
								c0.6-2.1,1.2-4.2,1.9-6.4c0.9-3,1.8-6,3.2-8.8c1.2-2.6,2.9-4.8,4.9-6.7c3.9-3.8,8.9-6.4,14.1-7.8c0.1,0.1,0.3,0.1,0.4-0.1
								c0,0,0,0,0,0c0.5-0.1,1-0.2,1.5-0.3c4.4-0.9,9-1,13.5-0.5c5.8,0.6,11.6,2.4,16.4,5.7c11.8,8.3,14.3,25,7.4,37.2
								c-3.6,6.4-9.5,11.1-16.4,13.4c-5.9,2-12.6,2.3-18.5,0.2c-1.1-0.4-2.1-0.8-3.1-1.4c-2.2-1.2-4.3-2.7-6.2-4.3
								c-1.4-1.2-2.7-2.5-4-3.7c-1.7-1.5-3.5-2.7-5.4-3.9c-1.7-1-3.4-1.9-5.2-2.4c-0.1-0.1-0.3-0.1-0.5-0.1
								c-1.3-0.3-3.1-0.3-4.2-1.2c-1.1-0.9-1.2-2.4-1.1-3.6c0-0.2,0.1-0.5,0.1-0.7c0.1-0.1,0.2-0.1,0.2-0.2c0.1-0.1,0-0.3-0.1-0.3
								c0.3-1.4,0.8-2.8,1.2-4.2c-0.1,0.2,0.3,0.3,0.4,0.1c-0.5,1.7-1.2,3.5-1.4,5.3c-0.2,1.6,0.2,3.3,1.9,3.8
								c1.7,0.5,3.4,0.6,5.1,1.3c1.7,0.7,3.3,1.7,4.9,2.6c1.6,1,3.1,2.1,4.5,3.3c1.3,1.2,2.5,2.4,3.8,3.6c1.6,1.3,3.2,2.5,5,3.6
								c2.7,1.6,5.5,2.6,8.5,3.1c6.5,1,13.3-0.4,19-3.6C395.1,259.8,400,253.8,402.1,246.7z"/>
							<path class="st4" d="M376.7,285.4c0.9,6.2-0.2,12.2-3.5,17.6c-3.1,5.1-7.7,9.1-12.6,12.4c-6.2,4.3-13.4,7.4-21,7.8
								c-4.3,0.3-8.6-0.5-12.6-2c-3.8-1.4-7.4-3.6-9.9-6.9c-4-5.2-4.2-11.7-3.4-17.9c0.5-3.4,1.1-6.7,1.9-10c0.4-0.8,0.7-1.6,1-2.4
								c0,0,0,0,0-0.1l0.1,0c-0.4,1.8-0.8,3.7-1.2,5.5c-0.8,3.8-1.5,7.7-1.6,11.6c-0.1,3,0.2,6.1,1.3,8.9c1.4,3.5,4,6.4,7.1,8.4
								c7,4.5,16,5.4,24,3.3c6.1-1.6,11.6-4.6,16.6-8.5c5.4-4.1,10.2-9.1,12.5-15.7c1.9-5.6,1.6-11.7-0.2-17.3
								c-1.3-3.9-3.5-7.7-6.8-10.3c-1.4-1.1-3-1.9-4.5-2.8c-2.1-1.1-4.1-2.2-6.1-3.4c-2.5-1.5-5.1-3.1-7.3-5c-1.6-1.5-3.1-3-4.9-4.3
								c-1.7-1.3-3.9-2.8-6-2.9c0.3,0,0.3-0.5,0-0.5c0.5,0,1,0.1,1.5,0.3c1.5,0.5,2.9,1.4,4.2,2.3c2.6,1.9,4.8,4.4,7.4,6.3
								c2.9,2.1,6,3.9,9.2,5.7c0.8,0.5,1.6,0.9,2.5,1.3c1.6,0.8,3.1,1.7,4.5,2.8c1.6,1.3,2.9,2.8,4,4.5
								C374.8,277.5,376.1,281.4,376.7,285.4z"/>
							<path class="st4" d="M375,280.2c1.8,5.5,2.1,11.7,0.2,17.3c-2.3,6.5-7.1,11.5-12.5,15.7c-4.9,3.8-10.5,6.9-16.6,8.5
								c-8,2.1-16.9,1.2-24-3.3c-3.1-2-5.8-4.9-7.1-8.4c-1.1-2.8-1.4-5.9-1.3-8.9c0.1-3.9,0.8-7.8,1.6-11.6c0.4-1.9,0.8-3.7,1.2-5.5
								c0.5-2.1,1-4.2,1.5-6.3c1.1-4.4,2.6-8.8,4.4-13c1.3-2.8,2.7-5.7,4.7-8.1c2.3-2.8,5.6-4.3,9.2-4.8c1-0.1,2-0.2,3-0.2
								c0,0,0,0,0,0c2.1,0.1,4.3,1.7,6,2.9c1.7,1.3,3.3,2.9,4.9,4.3c2.2,2,4.8,3.5,7.3,5c2,1.2,4,2.3,6.1,3.4
								c1.6,0.8,3.1,1.7,4.5,2.8C371.5,272.5,373.7,276.3,375,280.2z"/>
							<path class="st4" d="M362,184.4c1.6,4.1,2.6,8.5,2.4,12.9c-0.2,4.5-1.4,9.1-3.2,13.2c-0.1,0-0.3,0.1-0.4,0.1c0,0,0-0.1,0-0.2
								c0.3-0.8,0.6-1.6,0.9-2.4c1.6-4.5,2.6-9.2,2.2-14c-0.3-4.4-1.6-8.6-3.6-12.5c-4-8-11-14.6-19.4-17.8
								c-9.4-3.5-19.5-2.1-28.2,2.5c-7.7,4.1-14.6,10.4-19,18c-3.9,6.8-5.9,14.6-6.4,22.4c-0.1,0-0.3-0.1-0.4-0.1
								c0-0.6,0.1-1.1,0.1-1.7c0.8-8.6,3.5-17.3,8.6-24.4c5.1-7,12.3-12.8,20.3-16.2c4.5-1.9,9.3-3,14.2-3c4.9,0.1,9.7,1.3,14,3.4
								C352.3,168.9,358.7,176,362,184.4z"/>
							<path class="st4" d="M363.9,194.1c0.4,4.8-0.7,9.5-2.2,14c-0.3,0.8-0.6,1.6-0.9,2.4c0,0.1,0,0.1,0,0.2
								c-5.2,1.4-10.2,4-14.1,7.8c-2.1,2-3.7,4.2-4.9,6.7c-1.3,2.8-2.3,5.8-3.2,8.8c-0.6,2.1-1.3,4.2-1.9,6.4
								c-0.4,1.4-0.9,2.8-1.2,4.2c0,0-0.1,0-0.1,0.1c-0.7,0.6-1.4,1.2-2.2,1.5c-0.9,0.3-1.8,0.4-2.6,0.4c-1.5,0.1-2.9,0.2-4.4,0.3
								c-2.8,0.2-5.5-0.7-7.5-2.7c0.5-1.2,0.7-2.5,0.5-3.7c-0.3-1.6-1.3-2.9-2.1-4.3c-0.7-1.1-1.2-2.3-1.7-3.5
								c-0.6-1.3-1.3-2.6-2-3.9c-3-5.6-6.3-11.1-11.3-15.2c-4.2-3.4-9.3-5.6-14.6-6.9c0.4-7.8,2.5-15.6,6.4-22.4
								c4.3-7.6,11.3-13.9,19-18c8.7-4.6,18.9-6.1,28.2-2.5c8.4,3.2,15.4,9.8,19.4,17.8C362.3,185.5,363.6,189.8,363.9,194.1z"/>
							<path class="st4" d="M360.8,210.7c0.1,0,0.2-0.1,0.4-0.1c0,0,0,0,0,0C361.1,210.8,360.9,210.8,360.8,210.7z"/>
							<path class="st4" d="M339.4,251c0.3,0,0.3,0.5,0,0.5c0,0,0,0,0,0C339.1,251.5,339.1,251,339.4,251
								C339.4,251,339.4,251,339.4,251z"/>
							<path class="st4" d="M339.4,251c-0.3,0-0.3,0.5,0,0.5c-1-0.1-2,0-3,0.2c-3.6,0.5-6.9,2-9.2,4.8c-2,2.4-3.4,5.3-4.7,8.1
								c-1.8,4.2-3.3,8.6-4.4,13c-0.5,2.1-1,4.2-1.5,6.3l-0.1,0c0-0.2-0.3-0.3-0.4,0c0,0.1,0,0.1-0.1,0.2c0.1-0.4,0.2-0.7,0.3-1.1
								c0.6-2.4,1.1-4.8,1.8-7.2c1.5-5.6,3.5-11.2,6.4-16.3c0.6-1,1.2-2,1.9-2.9c0.1,0.2,0.4,0,0.3-0.2c0,0,0-0.1,0-0.1
								c0.9-1.2,2-2.2,3.3-3C332.6,251.7,336.3,250.7,339.4,251z"/>
							<path class="st4" d="M336.7,240.3c0.1-0.2,0.4-0.1,0.4,0.1C337.1,240.7,336.7,240.6,336.7,240.3z"/>
							<path class="st4" d="M335.6,244.5c0.1,0,0.3,0.2,0.1,0.3c-0.1,0.1-0.2,0.1-0.2,0.2C335.5,244.9,335.5,244.7,335.6,244.5z"/>
							<path class="st4" d="M335.6,244.5c0,0.2-0.1,0.4-0.1,0.5c-0.5,0.5-1.1,0.9-1.8,1.2c-0.8,0.3-1.7,0.4-2.6,0.5
								c-1.6,0.2-3.3,0.2-5,0.3c-2.5,0.2-4.8-0.5-6.8-1.9c-0.1-0.1-0.2-0.2-0.3-0.4c-0.2-0.2-0.3-0.4-0.5-0.6c0,0,0-0.1,0.1-0.1
								c2.1,1.9,4.7,2.9,7.5,2.7c1.5-0.1,2.9-0.2,4.4-0.3c0.9-0.1,1.8-0.2,2.6-0.4c0.9-0.3,1.6-0.9,2.2-1.5
								C335.5,244.5,335.5,244.5,335.6,244.5z"/>
							<path class="st4" d="M326.8,256.4c0.1,0.2-0.2,0.4-0.3,0.2C326.5,256.6,326.6,256.5,326.8,256.4
								C326.7,256.4,326.7,256.4,326.8,256.4z"/>
							<path class="st4" d="M326.7,256.3c-0.1,0.1-0.2,0.2-0.3,0.3c0,0,0,0,0,0c-0.4-0.8-0.3-1.9-0.3-2.8c0-1.4-0.2-2.7-1.1-3.9
								c-0.8-1-1.9-1.8-2.9-2.5c-0.8-0.5-1.7-0.9-2.4-1.4c-0.6-0.4-0.9-1.1-1.4-1.6c-1.5-1.5-3.7-2.1-5.8-2.5
								c-2.1-0.4-4.2-0.4-6.4-0.4c-5.1,0.1-10.1,1.1-14.7,3.3c-2.8,1.3-5.3,2.9-7.6,4.7c-1.3,1.1-2.6,2.2-3.8,3.4l0,0
								c0.1-0.1,0-0.3-0.2-0.3c1.6-1.6,3.3-3.1,5.1-4.4c6.9-5.1,15.5-7.4,24-7c2.3,0.1,4.6,0.4,6.7,1.1c0.9,0.4,1.8,0.8,2.6,1.4
								c0.1,0.1,0.1,0.1,0.2,0.2c0,0,0,0.1-0.1,0.1c0,0,0,0,0,0c0,0,0,0,0,0.1c0,0.1,0,0.1,0.1,0.2c0.4,0.3,0.7,0.6,1.1,0.9
								c0.1,0.2,0.3,0.3,0.4,0.5c0.8,0.6,1.7,1,2.6,1.5c1,0.6,2.1,1.4,2.8,2.3c0.8,0.9,1.1,2,1.2,3.2c0.1,0.7,0.1,1.4,0.1,2.2
								C326.5,255.4,326.5,255.9,326.7,256.3z"/>
							<path class="st4" d="M326.4,256.6C326.4,256.6,326.4,256.7,326.4,256.6c-0.7,1-1.3,2-1.9,3c-2.9,5-4.9,10.7-6.4,16.3
								c-0.7,2.4-1.2,4.8-1.8,7.2c-0.1,0.4-0.2,0.7-0.3,1.1c-0.8,2.3-2,4.2-3.6,6c-1.8,2-3.8,3.8-6.3,4.9c-4.6,2-9.9,1.8-14.6,0.5
								c-5.1-1.4-9.8-4.1-13.3-8.1c-3.8-4.3-5.7-9.9-5.9-15.6c-0.1-4.3,0.8-8.6,2.9-12.4c1.3-2.4,2.9-4.5,4.7-6.4
								c1.2-1.2,2.5-2.4,3.8-3.4c2.4-1.9,4.9-3.5,7.6-4.7c4.6-2.1,9.6-3.1,14.7-3.3c2.1-0.1,4.3,0,6.4,0.4c2,0.4,4.3,1,5.8,2.5
								c0.5,0.5,0.8,1.2,1.4,1.6c0.8,0.5,1.6,0.9,2.4,1.4c1.1,0.7,2.2,1.4,2.9,2.5c0.9,1.2,1,2.5,1.1,3.9
								C326.1,254.7,326,255.8,326.4,256.6z"/>
							<path class="st4" d="M319.1,244.8c0.1,0.1,0.2,0.3,0.3,0.4c-0.4-0.3-0.8-0.6-1.1-0.9c-0.1,0-0.1-0.1-0.1-0.2
								c0,0.2,0.3,0.3,0.4,0.1c0,0,0,0,0,0C318.7,244.4,318.9,244.6,319.1,244.8z"/>
							<path class="st4" d="M319.1,240.3c0.2,1.3,0,2.6-0.5,3.7c0,0-0.1-0.1-0.1-0.1c-0.1-0.1-0.1-0.1-0.2,0c0,0,0,0-0.1,0
								c0.6-1.5,0.8-3.1,0.1-4.6c-0.6-1.5-1.6-2.8-2.4-4.2c-0.5-1-1-2.1-1.5-3.1c-1.3-2.6-2.7-5.2-4.2-7.6
								c-3.4-5.6-7.6-10.6-13.5-13.8c-4.3-2.4-9-3.6-13.8-4.2c-3.5-0.5-6.9-0.7-10.4-0.4c-5.5,0.4-11,2-15.6,5
								c-3.2,2.1-6.1,4.8-8.4,7.9c-3.2,4.3-5.3,9.5-4.4,14.9c0.9,5.4,4.6,10.3,8.9,13.4c7.3,5.4,17.7,7,26.5,5.6c0,0,0,0,0,0
								c-0.1,0.1-0.3,0.3-0.4,0.4c-1.1,0.2-2.2,0.3-3.3,0.4c-9.4,0.6-19.9-2.1-26.5-9.1c-3.7-4-6.3-9.2-5.8-14.8
								c0.5-4.9,3.1-9.4,6.3-13.1c2.9-3.3,6.5-6.1,10.5-7.9c4.8-2.2,10.1-3.1,15.3-3.1c3.7,0,7.5,0.4,11.2,1.2c0,0,0,0.1,0,0.1
								c0,0.3,0.4,0.2,0.4,0c0,0,0,0,0-0.1c5.3,1.2,10.3,3.4,14.6,6.9c5,4.1,8.3,9.6,11.3,15.2c0.7,1.3,1.4,2.6,2,3.9
								c0.5,1.2,1.1,2.3,1.7,3.5C317.8,237.4,318.8,238.7,319.1,240.3z"/>
							<path class="st4" d="M318.6,244.1c0,0,0,0.1-0.1,0.1c-0.1-0.1-0.2-0.2-0.2-0.2C318.4,243.9,318.4,243.9,318.6,244.1
								C318.5,244,318.6,244,318.6,244.1z"/>
							<path class="st4" d="M318.5,244.2C318.5,244.2,318.5,244.2,318.5,244.2c-0.1,0.2-0.4,0.1-0.4-0.1c0,0,0,0,0-0.1
								c0,0,0.1-0.1,0.1-0.1C318.4,244,318.5,244.1,318.5,244.2z"/>
							<path class="st4" d="M318.4,239.3c0.6,1.5,0.5,3.1-0.1,4.6c-0.1-0.1-0.1-0.1-0.2-0.2c-0.8-0.6-1.6-1.1-2.6-1.4
								c-2.1-0.8-4.4-1.1-6.7-1.1c-8.6-0.4-17.1,1.9-24,7c-1.8,1.3-3.5,2.8-5.1,4.4c0,0,0,0,0,0c-8.9,1.4-19.2-0.1-26.5-5.6
								c-4.3-3.2-8-8.1-8.9-13.4c-0.9-5.4,1.2-10.6,4.4-14.9c2.3-3.1,5.2-5.8,8.4-7.9c4.7-3,10.1-4.5,15.6-5c3.5-0.3,7-0.1,10.4,0.4
								c4.8,0.7,9.5,1.9,13.8,4.2c5.9,3.2,10.1,8.1,13.5,13.8c1.5,2.5,2.9,5,4.2,7.6c0.5,1,0.9,2.1,1.5,3.1
								C316.8,236.5,317.8,237.8,318.4,239.3z"/>
							<path class="st4" d="M318.2,243.9C318.3,243.9,318.3,243.9,318.2,243.9c0,0.1,0,0.1-0.1,0.1c0,0,0,0,0,0
								C318.2,244,318.2,243.9,318.2,243.9z"/>
							<path class="st4" d="M316.6,284C316.6,284,316.5,284,316.6,284c-0.3,0.9-0.6,1.7-1,2.4c0.2-0.8,0.4-1.5,0.5-2.3
								c0-0.1,0.1-0.1,0.1-0.2C316.2,283.7,316.6,283.8,316.6,284z"/>
							<path class="st4" d="M316.1,284.1c-0.2,0.8-0.4,1.5-0.5,2.3c-0.1,0.2-0.2,0.4-0.3,0.6c-1.4,2.5-3.5,4.6-5.6,6.4
								c-1.8,1.4-3.9,2.4-6.2,2.9c-5,1.2-10.3,0.4-15-1.4c-5.1-2-9.8-5.5-12.8-10.2c-2.7-4.4-3.9-9.6-3.8-14.7
								c0.2-4.7,1.7-9.2,4.3-13.1c0.9-1.4,1.9-2.6,3-3.8c0.2,0,0.3,0,0.5-0.1c0.1,0,0.1,0,0.1-0.1l0,0c-1.9,1.9-3.5,4.1-4.7,6.4
								c-2,3.8-3,8.1-2.9,12.4c0.2,5.7,2.1,11.3,5.9,15.6c3.5,3.9,8.3,6.7,13.3,8.1c4.7,1.3,10,1.5,14.6-0.5
								c2.5-1.1,4.5-2.9,6.3-4.9C314.1,288.3,315.3,286.4,316.1,284.1z"/>
							<path class="st4" d="M287.4,206.7C287.4,206.7,287.4,206.7,287.4,206.7c0,0.3-0.4,0.3-0.4,0.1c0,0,0-0.1,0-0.1
								C287.2,206.6,287.3,206.6,287.4,206.7z"/>
							<path class="st4" d="M279.7,252.6c0.2,0,0.2,0.2,0.2,0.3c0,0-0.1,0.1-0.1,0.1c-0.2,0-0.3,0.1-0.5,0.1
								C279.4,252.9,279.5,252.7,279.7,252.6z"/>
						</g>
						<g>
						</g>
					</g>
				</g>
			</g>
		</g>
		<g>
			<g>
				<g>
					<path class="st5" d="M339.4,250.9c-3.2-0.3-6.8,0.7-9.6,2.4c-2.4,1.4-4.1,3.9-5.5,6.2c-3,5.1-4.9,10.8-6.5,16.4
						c-1.9,6.8-3.5,13.7-4.4,20.7c-0.8,6.3-0.6,12.8,3.4,18c5.1,6.6,14.6,9.4,22.7,9c7.6-0.4,14.9-3.6,21.1-7.9
						c4.9-3.4,9.5-7.4,12.6-12.5c3.3-5.4,4.4-11.5,3.6-17.7c-0.6-4-1.9-8-4.1-11.4c-2.2-3.3-5-5.4-8.5-7.3c-4-2.2-8-4.4-11.8-7.1
						c-2.6-1.9-4.8-4.5-7.5-6.3C343.4,252.3,341.5,251,339.4,250.9c-0.5,0-0.5,0.7,0,0.8c2.2,0.1,4.6,1.8,6.3,3.2
						c1.6,1.3,3.1,2.8,4.6,4.2c2.1,1.8,4.5,3.3,6.9,4.8c3.5,2.1,7.4,3.7,10.6,6.1c3.4,2.6,5.8,6.5,7.1,10.5
						c1.8,5.6,2.1,11.8,0.1,17.4c-2.3,6.5-7.1,11.4-12.4,15.5c-4.9,3.8-10.5,6.8-16.5,8.4c-8,2.1-17,1.2-24-3.3
						c-3.2-2-5.8-5-7.1-8.5c-1.1-2.8-1.3-5.9-1.2-8.9c0.3-7.8,2.5-15.7,4.4-23.2c1.1-4.4,2.5-8.7,4.3-12.9c1.2-2.8,2.6-5.6,4.6-8
						c2.3-2.9,5.4-4.4,9-5c1.1-0.2,2.2-0.3,3.3-0.2C339.9,251.7,339.9,250.9,339.4,250.9z"/>
				</g>
			</g>
			<g>
				<g>
					<g>
						<path class="st5" d="M337.2,240.5c1.1-3.7,2.1-7.4,3.4-11c0.9-2.4,1.8-4.9,3.3-7c3.6-5.3,9.6-9,15.7-10.9
							c8.9-2.8,19.6-2.2,28.1,1.6c5.7,2.6,10.4,6.8,13.1,12.5c3.1,6.5,3.5,14.3,1.4,21.2c-4.3,13.6-18.4,22.3-32.6,20.2
							c-3.1-0.5-5.9-1.5-8.6-3.2c-3.3-2-5.9-4.6-8.8-7.2c-2.6-2.3-5.7-4.4-8.9-5.7c-1.6-0.7-3.3-1-5.1-1.3c-1.9-0.4-2.5-1.9-2.3-3.8
							C336.1,244,336.7,242.2,337.2,240.5c0.1-0.4-0.5-0.5-0.6-0.2c-0.7,2.5-2.8,6.9-0.3,9.1c0.9,0.8,2.4,0.8,3.5,1.1
							c2.1,0.4,4.1,1.3,5.9,2.3c1.9,1.1,3.8,2.3,5.5,3.8c1.4,1.2,2.7,2.5,4.1,3.8c2.8,2.5,6,4.8,9.5,6.1
							c12.9,4.7,28.3-1.6,35.1-13.2c7.1-12.2,5-29-6.7-37.6c-8.4-6.1-20.3-7.7-30.3-5.6c-5.9,1.2-11.5,3.9-15.9,8
							c-2.2,2-3.9,4.2-5.2,6.9c-1.4,2.9-2.3,6-3.3,9c-0.7,2.1-1.3,4.3-1.9,6.4C336.5,240.7,337.1,240.8,337.2,240.5z"/>
					</g>
				</g>
				<g>
					<g>
						<path class="st5" d="M326.8,256.4c-0.6-1.1-0.2-2.8-0.4-4c-0.1-1.1-0.5-2.1-1.3-3c-0.8-1-1.8-1.7-2.9-2.3
							c-0.8-0.5-1.9-0.9-2.7-1.6c-0.6-0.6-1-1.4-1.7-1.9c-0.8-0.6-1.7-1-2.6-1.4c-2.2-0.8-4.5-1-6.8-1.1c-8.6-0.3-17.1,2-24.1,7.2
							c-7.2,5.3-12.6,12.8-12.9,22.1c-0.1,5.2,1.2,10.5,4.1,14.9c3,4.6,7.7,7.9,12.7,9.9c4.8,1.8,10.2,2.6,15.3,1.3
							c4.9-1.3,9.2-5,11.7-9.4c0.5-0.9,0.9-1.9,1.2-2.9c0.1-0.4-0.5-0.5-0.6-0.2c-1.6,4.6-5.4,9-9.9,11c-4.6,2-9.9,1.8-14.7,0.5
							c-5.1-1.4-9.8-4.1-13.3-8.1c-3.8-4.3-5.7-9.8-5.9-15.5c-0.3-9,4.4-16.8,11.3-22.2c6.4-5,14-7.8,22.2-8c2.4-0.1,4.8,0,7.1,0.5
							c1.2,0.2,2.4,0.6,3.5,1.2c1.2,0.6,1.8,1.3,2.6,2.3c0.5,0.6,1.1,0.9,1.7,1.2c1.2,0.7,2.4,1.4,3.4,2.3c1.3,1.3,1.8,2.7,1.8,4.5
							c0,1-0.1,2.2,0.4,3.1C326.5,257.1,327,256.8,326.8,256.4L326.8,256.4z"/>
					</g>
				</g>
				<g>
					<g>
						<path class="st5" d="M318.6,244.3c0.5-1.1,0.8-2.4,0.6-3.6c-0.2-1.6-1.1-2.9-1.9-4.3c-1.5-2.5-2.6-5.2-4-7.8
							c-3.1-5.7-6.5-11.4-11.7-15.5c-7.3-5.8-17.1-8-26.3-7.9c-5.4,0-10.7,1-15.6,3.4c-3.9,1.9-7.3,4.6-10.2,7.9
							c-3.3,3.7-5.9,8.3-6.3,13.4c-0.4,5.5,2.1,10.4,5.7,14.4c7.4,8.2,20.1,10.6,30.6,8.9c0.4-0.1,0.2-0.6-0.2-0.6
							c-8.8,1.4-18.9-0.1-26.3-5.4c-4.3-3.1-8.1-8-9.1-13.3c-1-5.4,1.1-10.7,4.3-15c5.7-7.7,14.3-12.1,23.8-12.9
							c8-0.6,16.9,0.7,24,4.4c6.6,3.5,11.1,9.1,14.8,15.4c1.5,2.6,2.9,5.3,4.2,8c0.7,1.5,1.6,2.9,2.4,4.3c1.1,1.9,1.3,3.8,0.4,5.8
							C317.9,244.4,318.4,244.7,318.6,244.3L318.6,244.3z"/>
					</g>
				</g>
				<g>
					<g>
						<path class="st5" d="M287.4,206.7c0.4-7.7,2.4-15.4,6.2-22.1c4.3-7.6,11.2-14,18.9-18.1c8.7-4.7,18.8-6.2,28.3-2.7
							c8.5,3.1,15.5,9.7,19.5,17.7c2.2,4.3,3.5,9.1,3.7,13.9c0.2,5.1-1.2,10.4-3.2,15c-0.1,0.4,0.4,0.5,0.6,0.2
							c1.8-4.3,3.1-9,3.2-13.7c0.1-4.3-0.8-8.7-2.4-12.8c-3.3-8.3-9.7-15.5-17.8-19.5c-9-4.5-19.2-4.4-28.3-0.5
							c-8,3.4-15.3,9.2-20.4,16.3c-5.5,7.6-8.2,17-8.7,26.3C286.8,207.1,287.4,207.1,287.4,206.7L287.4,206.7z"/>
					</g>
				</g>
				<g>
					<g>
						<path class="st5" d="M318.1,244.4c2.2,2.1,5.1,3.1,8.1,2.9c1.6-0.1,3.3-0.2,4.9-0.3c0.9-0.1,1.8-0.2,2.6-0.5
							c0.8-0.3,1.4-0.9,2.1-1.4c0.3-0.3-0.1-0.7-0.4-0.4c-0.7,0.6-1.4,1.2-2.2,1.4c-0.8,0.2-1.7,0.3-2.5,0.4
							c-1.4,0.1-2.9,0.2-4.4,0.3c-2.9,0.2-5.6-0.7-7.7-2.7C318.3,243.7,317.8,244.1,318.1,244.4L318.1,244.4z"/>
					</g>
				</g>
			</g>
		</g>
		<path class="st3" d="M272.6,343.1c-2.1,0.8-4.6,2-7.2,3.6c-3.4,2.1-6.1,4.3-8.1,6.3l-0.3,2.9c1.7-2.2,4-4.8,7.1-7.4
			C266.4,346.6,270.6,344.3,272.6,343.1"/>
		<g>
			<path class="st6" d="M117.4,101.4c7.9-8.1,6.8-18.6,5.3-33.2c-1.3-12.5-2.1-20.5-7.9-29c-3-4.3-12.6-18.5-32.5-19.2
				c-10.5-0.4-27.8,2.8-35.2,13.2c-2,2.8-2.8,5.5-2.4,24.5c0.4,18.1,0.6,27.3,2.6,30.7c3.5,6,12.4,9.8,30.2,17.3
				c11,4.6,15.9,5.5,21.7,4.6C101.1,109.9,110.7,108.4,117.4,101.4z"/>
			<path class="st6" d="M72.9,92.6C54,79.4,56.2,74,45.8,70.7c-11.2-3.6-26.1-1.3-35.3,7.3c-18.5,17.3-10.6,56.8,9.6,67.4
				c10.6,5.5,22.3,1.9,39.9-3.7c22-6.9,28.8-17.2,30.7-20.3c1.7-2.8,3.5-6,3.1-10C92.9,103.9,84.7,100.8,72.9,92.6z"/>
			<path class="st6" d="M111.2,86.5c0.4-5.9,4.4-60.6,38.3-68.1c15.4-3.4,28.4,3.9,31.2,5.6c14.9,8.8,23.1,25.6,22.9,40.7
				c-0.3,22-16,43.6-34.2,49.6c-8.2,2.7-33.7,7.7-33.5,10.8c0,0,0,0.2-0.1,0.3c-1,1.3-12.6-4.3-18.4-10.9
				C115.4,112.2,110,105.1,111.2,86.5z"/>
			<path class="st6" d="M95.3,122.4c1-7.6,12.2-10.9,18.1-12.6c1.9-0.6,42.1-11.7,66.4,16c2.8,3.2,17,20.1,12.9,35.3
				c-2.3,8.5-9.2,13.1-22.1,21.6c-9.8,6.5-14.7,9.7-19.3,9.2c-12.2-1.5-13.2-18.4-35.4-43.3C103.1,134.3,94.3,129.6,95.3,122.4z"/>
			<path class="st6" d="M94.3,114.9c-16.1,1.1-27.7,14.9-28.8,16.3c-4.1,5-13.3,16.3-11.1,30.6c2.9,18.1,22.1,27.5,34.2,30.1
				c3.2,0.7,22.9,5,31.2-5.7c6.8-8.8,2.3-22.9,0.1-30c-3.4-10.7-6.6-9.4-10.1-21.3c-2.6-9-2.5-15.5-7.6-18.6
				C101.2,115.6,99.1,114.6,94.3,114.9z"/>
		</g>
	</g>
	<g>
		<g class="st7">
			<path d="M425.8,814.7c-61.8,0-123.6,0-185.4,0c-62,0-124.1,0-186.1,0c-0.6,0-3.7-0.1-6.2-2.6c-1.6-1.6-2.6-3.8-2.6-6.2V428.8
				c0-4.8,3.9-8.7,8.7-8.7h371.5c4.8,0,8.7,3.9,8.7,8.7V806C434.5,810.8,430.6,814.7,425.8,814.7z"/>
			<g>
				<path d="M425.8,813.2c-31,0-62.1,0-93.1,0c-31,0-62.1,0-93.1,0c-31,0-62,0-93.1,0c-15.5,0-31,0-46.5,0c-7.8,0-15.5,0-23.3,0
					c-7.5,0-15.1,0.3-22.6,0c-4.5-0.2-7.1-3.9-7.1-8.1c0-1.4,0-2.8,0-4.2c0-6,0-12,0-18.1c0-9.6,0-19.2,0-28.8c0-12.3,0-24.6,0-36.9
					c0-14.1,0-28.3,0-42.4c0-15.2,0-30.5,0-45.7c0-15.5,0-30.9,0-46.4c0-14.8,0-29.7,0-44.5c0-13.4,0-26.7,0-40.1
					c0-11,0-22.1,0-33.1c0-7.9,0-15.8,0-23.7c0-3.9,0-7.8,0-11.7c0-4.3,2.7-7.9,7.2-8.1c0.6,0,1.3,0,1.9,0c4.7,0,9.4,0,14.1,0
					c8.6,0,17.2,0,25.8,0c11.6,0,23.3,0,34.9,0c13.8,0,27.6,0,41.3,0c15.1,0,30.1,0,45.2,0c15.5,0,31,0,46.5,0c15,0,30.1,0,45.1,0
					c13.7,0,27.4,0,41.2,0c11.5,0,23.1,0,34.6,0c8.5,0,17,0,25.5,0c4.6,0,9.1,0,13.7,0c1.3,0,2.6-0.1,3.9,0.4c3.6,1.2,5,4.5,5,7.9
					c0,4.1,0,8.1,0,12.2c0,8,0,16,0,24c0,11.1,0,22.3,0,33.4c0,13.4,0,26.8,0,40.3c0,14.9,0,29.7,0,44.6c0,15.5,0,30.9,0,46.4
					c0,15.2,0,30.5,0,45.7c0,14.1,0,28.3,0,42.4c0,12.2,0,24.5,0,36.7c0,9.5,0,18.9,0,28.4c0,5.8,0,11.7,0,17.5c0,1.3,0,2.6,0,3.9
					C433,809.5,430.3,813.1,425.8,813.2c-1.9,0.1-1.9,3.1,0,3c5.9-0.2,10.2-4.8,10.2-10.7c0-1.2,0-2.4,0-3.6c0-5.7,0-11.5,0-17.2
					c0-9.4,0-18.8,0-28.3c0-12.3,0-24.5,0-36.8c0-14.3,0-28.6,0-42.9c0-15.3,0-30.7,0-46c0-15.6,0-31.2,0-46.8c0-15,0-30,0-44.9
					c0-13.5,0-27,0-40.5c0-11.2,0-22.4,0-33.6c0-7.9,0-15.9,0-23.8c0-3.9,0-7.7,0-11.6c0-4.2-1.9-8.1-5.8-10c-1.9-0.9-3.8-1-5.8-1
					c-4.5,0-9,0-13.4,0c-8.5,0-17,0-25.5,0c-11.6,0-23.2,0-34.8,0c-13.8,0-27.7,0-41.5,0c-15.2,0-30.5,0-45.7,0
					c-15.6,0-31.2,0-46.9,0c-15.2,0-30.3,0-45.5,0c-13.9,0-27.8,0-41.7,0c-11.6,0-23.2,0-34.8,0c-8.5,0-17,0-25.5,0
					c-4.5,0-9,0-13.4,0c-1.9,0-3.8,0.1-5.6,0.9c-4.1,1.8-6.1,5.8-6.1,10.1c0,3.9,0,7.8,0,11.6c0,7.9,0,15.9,0,23.8
					c0,11.1,0,22.3,0,33.4c0,13.6,0,27.1,0,40.7c0,15,0,30,0,44.9c0,15.6,0,31.2,0,46.8c0,15.3,0,30.7,0,46c0,14.2,0,28.5,0,42.7
					c0,12.3,0,24.6,0,36.9c0,9.4,0,18.8,0,28.3c0,5.7,0,11.4,0,17.2c0,1.2,0,2.4,0,3.6c0.1,5.8,4.2,10.4,10.1,10.7
					c7.5,0.3,15.1,0,22.6,0c7.9,0,15.8,0,23.7,0c15.6,0,31.3,0,46.9,0c31.3,0,62.6,0,93.8,0c31.3,0,62.6,0,93.9,0
					c30.2,0,60.5,0,90.7,0C427.7,816.2,427.7,813.2,425.8,813.2z"/>
			</g>
		</g>
		<g>
			<g>
				<path d="M436.9,460.8H43.2c-4.6,0-8.4-3.7-8.4-8.4v-25.3c0-4.6,3.7-8.4,8.4-8.4h393.7c4.6,0,8.4,3.7,8.4,8.4v25.3
					C445.2,457.1,441.5,460.8,436.9,460.8z"/>
				<g>
					<path d="M436.9,459.3c-4.1,0-8.3,0-12.4,0c-11.2,0-22.4,0-33.6,0c-16.3,0-32.5,0-48.8,0c-19.5,0-39,0-58.5,0
						c-20.9,0-41.8,0-62.6,0c-20.2,0-40.5,0-60.7,0c-17.8,0-35.5,0-53.3,0c-13.4,0-26.8,0-40.2,0c-7.2,0-14.3,0-21.5,0
						c-3.8,0-7.7-0.9-8.7-5.3c-0.3-1.2-0.2-2.5-0.2-3.8c0-2.1,0-4.1,0-6.2c0-4.7,0-9.4,0-14.1c0-0.9,0-1.8,0-2.7
						c0.1-3.8,3-6.7,6.9-6.9c0.3,0,0.6,0,0.9,0c2.1,0,4.2,0,6.4,0c9.6,0,19.2,0,28.9,0c15.3,0,30.5,0,45.8,0c18.9,0,37.8,0,56.7,0
						c20.7,0,41.3,0,62,0c20.6,0,41.2,0,61.9,0c18.5,0,37.1,0,55.6,0c14.6,0,29.3,0,43.9,0c8.8,0,17.7,0,26.5,0c1.7,0,3.3,0,5,0
						c3.6,0,6.8,2.6,7.1,6.3c0.3,3.1,0,6.3,0,9.4c0,4.6,0,9.2,0,13.7c0,0.9,0,1.8,0,2.7C443.6,456.3,440.7,459.2,436.9,459.3
						c-1.9,0.1-1.9,3.1,0,3c5.9-0.2,9.8-4.8,9.9-10.5c0-4.2,0-8.4,0-12.6c0-3.9,0-7.8,0-11.7c-0.1-5.6-4.2-10-9.9-10.2
						c-4.4-0.1-8.8,0-13.2,0c-11.6,0-23.1,0-34.7,0c-16.8,0-33.5,0-50.3,0c-20,0-39.9,0-59.9,0c-21.2,0-42.4,0-63.5,0
						c-20.3,0-40.7,0-61,0c-17.7,0-35.4,0-53.1,0c-12.9,0-25.7,0-38.6,0c-6.2,0-12.4,0-18.6,0c-6.3,0-10.6,4.4-10.6,10.7
						c0,8.1-0.2,16.2,0,24.3c0.1,6.2,5,10.1,10.9,10.1c2.3,0,4.5,0,6.8,0c10,0,20,0,30.1,0c15.6,0,31.3,0,46.9,0
						c19.4,0,38.9,0,58.3,0c21,0,42,0,63,0c20.8,0,41.6,0,62.3,0c18.5,0,37,0,55.5,0c14.2,0,28.5,0,42.7,0c8,0,16,0,24,0
						c1,0,2.1,0,3.1,0C438.8,462.3,438.8,459.3,436.9,459.3z"/>
				</g>
			</g>
			<g>
				<path class="st5" d="M145.2,447.3h-0.3c-1.5-0.1-2.5-0.6-3.1-1.4c-0.6-0.9-0.8-1.9-0.8-3.1c0-1.2,0.2-2.4,0.5-3.7
					c0.3-1.3,0.7-2.3,1-3.2l-1.2,0.2c-0.1,0-0.3-0.1-0.4-0.2c-0.1-0.1-0.2-0.2-0.2-0.4v-0.2c0-0.3,0.1-0.6,0.2-1
					c0.1-0.4,0.4-0.6,0.8-0.8c0.4-0.1,1-0.2,1.7-0.2c0.2-0.5,0.4-0.9,0.5-1.3c0.5-1.3,0.9-2.3,1-3.1c0.1-0.3,0.1-0.5,0.1-0.8
					c0-0.5-0.1-0.8-0.2-1c-0.1-0.2-0.1-0.3-0.1-0.5c0-0.1,0-0.2,0.1-0.3c0.3-0.3,0.8-0.4,1.6-0.4c0.5,0,1,0.1,1.6,0.3
					c0.6,0.2,1.1,0.6,1.5,1.1c0.4,0.5,0.6,1.2,0.6,2.1c0,0.3,0,0.6-0.1,0.9c-0.1,0.4-0.2,1-0.5,1.7c-0.2,0.4-0.3,0.9-0.5,1.4
					c1.2,0.2,1.8,0.5,2,1l0,0.3c0,0.3-0.1,0.6-0.2,0.9c-0.1,0.3-0.2,0.5-0.4,0.7c-0.1,0.1-0.3,0.2-0.4,0.2c-0.1,0-0.2,0-0.4-0.1
					c-0.3-0.1-0.8-0.2-1.5-0.4c-0.1,0.5-0.3,1.2-0.5,2c-0.2,0.8-0.3,1.6-0.3,2.4c0,0.5,0.1,0.9,0.2,1.2c0.1,0.3,0.3,0.5,0.6,0.6h0.2
					c0.4,0,0.8-0.2,1.1-0.7c0.3-0.5,0.6-1,0.9-1.7c0.1-0.2,0.2-0.4,0.5-0.5c0.2-0.1,0.4-0.2,0.7-0.2c0.3,0,0.6,0.1,0.8,0.2
					c0.3,0.2,0.4,0.4,0.4,0.7c0,0.1,0,0.2-0.1,0.4c-0.4,1.2-0.9,2.4-1.6,3.4c-0.7,1.1-1.5,1.9-2.5,2.6
					C147.6,446.9,146.5,447.3,145.2,447.3z"/>
				<path class="st5" d="M163.9,447.2h-0.2c-1.2-0.1-2.1-0.8-2.9-2.1c-1.4,1.4-2.7,2.1-3.8,2.1c-0.2,0-0.4,0-0.6-0.1
					c-1.7-0.5-2.8-1.8-3.4-3.8c-0.2-0.6-0.2-1.2-0.2-1.9c0-1.5,0.4-2.9,1.1-4.2c0.7-1.3,1.6-2.4,2.6-3.2c1-0.8,2.1-1.2,3.1-1.2
					c1.1,0,2,0.5,2.9,1.6l0-0.5c0-0.2,0-0.4-0.1-0.6c0-0.1,0-0.2,0-0.2c0-0.1,0-0.1,0-0.2c0.1-0.2,0.2-0.3,0.3-0.3
					c0.3-0.1,0.7-0.2,1.1-0.2c0.9,0,1.6,0.3,2.4,0.8c0.7,0.6,1.1,1.4,1.1,2.5c0,0.4-0.1,0.9-0.2,1.4c-0.2,0.5-0.3,0.9-0.5,1.4
					c-0.5,1.2-0.7,2-0.7,2.6v0.2c0.1,0.5,0.2,0.8,0.5,1c0.1,0.1,0.2,0.1,0.3,0.1c0.3,0,0.6-0.3,0.9-0.8c0.3-0.6,0.6-1.2,0.8-2
					c0.1-0.2,0.2-0.4,0.4-0.5c0.2-0.1,0.4-0.2,0.6-0.2c0.3,0,0.5,0.1,0.8,0.2c0.2,0.2,0.4,0.4,0.4,0.7l-0.1,0.3
					c-0.4,1.2-0.8,2.3-1.4,3.3c-0.6,1.1-1.3,1.9-2.2,2.6C166,446.9,165,447.2,163.9,447.2z M160.3,440.6l0.3,0
					c0.3-1.1,0.6-2.2,1-3.3c-0.1-0.6-0.4-1-0.9-1.1l-0.2,0c-0.5,0-0.9,0.3-1.2,0.9c-0.3,0.6-0.4,1.3-0.4,1.9c0,0.4,0.1,0.7,0.2,1
					c0.1,0.3,0.4,0.5,0.7,0.5L160.3,440.6z"/>
				<path class="st5" d="M181,447.6h-0.3c-1-0.1-1.9-0.6-2.7-1.4c-0.8-0.8-1.4-1.7-1.9-2.8v0.6c0,0.7,0.1,1.5,0.2,2.3
					c0,0.3-0.2,0.5-0.5,0.7c-0.4,0.2-0.8,0.2-1.3,0.2h-0.3c-1.4-0.1-2.4-0.6-2.9-1.4s-0.8-1.8-0.8-3.1c0-1.6,0.3-3.4,0.9-5.3
					c0.6-1.9,1.2-3.7,1.9-5.4c0.6-1.5,1-2.6,1.2-3.4c0.1-0.3,0.1-0.5,0.1-0.7c0-0.5-0.1-0.8-0.2-1c-0.1-0.2-0.1-0.3-0.1-0.5
					c0-0.1,0-0.2,0.1-0.4c0.3-0.3,0.8-0.4,1.5-0.4c0.5,0,1,0.1,1.6,0.3c0.6,0.2,1.1,0.6,1.5,1.1c0.4,0.5,0.6,1.2,0.6,2.1
					c0,0.3,0,0.6-0.1,0.9c-0.1,0.5-0.3,1.2-0.7,2c-0.1,0.3-0.3,0.7-0.4,1.1c1.2-0.9,2.4-1.4,3.8-1.4h0.1c1.2,0,2.1,0.3,2.6,0.8
					c0.5,0.5,0.8,1.1,0.8,1.8c0,1.3-0.6,2.6-1.8,4.1c-1.2,1.5-2.7,2.5-4.5,3.1c0.6,0.8,1.6,1.3,3.1,1.6h0.2c0.8,0,1.5-0.4,2-1.1
					c0.5-0.7,1-1.6,1.3-2.6c0.2-0.5,0.6-0.7,1-0.7c0.3,0,0.5,0.1,0.8,0.3c0.2,0.2,0.3,0.4,0.3,0.7l-0.1,0.3
					c-0.4,1.2-0.9,2.4-1.5,3.5c-0.6,1.1-1.4,2-2.3,2.8C183.5,447.3,182.3,447.6,181,447.6z M177.4,440.2c1,0,1.8-0.4,2.4-1.2
					c0.6-0.8,0.9-1.6,0.9-2.4c0-0.3,0-0.5-0.1-0.7c-0.2-0.5-0.5-0.8-0.8-0.8c-0.4,0-0.9,0.4-1.4,1.1c-0.5,0.7-0.9,1.5-1.2,2.2
					c-0.3,0.8-0.6,1.4-0.6,1.7C176.9,440.2,177.2,440.2,177.4,440.2z"/>
				<path class="st5" d="M195,447.4h-0.2c-1.5,0-2.7-0.3-3.6-0.8c-0.9-0.6-1.6-1.3-2.1-2.2c-0.4-0.9-0.7-1.9-0.7-3
					c0-2,0.7-4,2.1-5.8c1.4-1.9,3.3-2.9,5.8-3.2l0.7,0c1.1,0,1.9,0.2,2.6,0.6c0.6,0.4,1.1,0.9,1.4,1.6c0.3,0.6,0.4,1.3,0.4,2.1
					c0,1-0.2,2-0.6,3c-0.4,1-0.9,1.8-1.6,2.5c-0.7,0.7-1.4,1-2.2,1c-0.7,0-1.5-0.4-2.3-1.2v0.2c0,0.6,0.2,1,0.6,1.5
					c0.4,0.4,0.9,0.6,1.5,0.6h0.3c2.3-0.4,3.9-1.9,4.8-4.5c0.3-0.4,0.6-0.7,1.1-0.7c0.3,0,0.6,0.1,0.8,0.3c0.2,0.2,0.4,0.4,0.4,0.7
					c0,0.1,0,0.2-0.1,0.4C202.5,444.9,199.5,447.3,195,447.4z M195.9,438.6c0.5,0,1-0.3,1.5-0.9c0.5-0.6,0.8-1.3,0.8-1.9
					c0-0.5-0.3-1-0.8-1.3h-0.1c-0.2,0-0.4,0.3-0.7,0.8c-0.3,0.5-0.6,1.1-0.8,1.7c-0.2,0.6-0.4,1.1-0.4,1.4
					C195.6,438.6,195.7,438.6,195.9,438.6z"/>
				<path class="st5" d="M226.4,447.2h-0.2c-1.2-0.1-2.1-0.8-2.9-2.1c-1.4,1.4-2.7,2.1-3.8,2.1c-0.2,0-0.4,0-0.6-0.1
					c-1.7-0.5-2.8-1.8-3.4-3.8c-0.2-0.6-0.2-1.2-0.2-1.9c0-1.5,0.4-2.9,1.1-4.2c0.7-1.3,1.6-2.4,2.6-3.2c1-0.8,2.1-1.2,3.1-1.2
					c1.1,0,2,0.5,2.9,1.6l0-0.5c0-0.2,0-0.4-0.1-0.6c0-0.1,0-0.2,0-0.2c0-0.1,0-0.1,0-0.2c0.1-0.2,0.2-0.3,0.3-0.3
					c0.3-0.1,0.7-0.2,1.1-0.2c0.9,0,1.6,0.3,2.4,0.8c0.7,0.6,1.1,1.4,1.1,2.5c0,0.4-0.1,0.9-0.2,1.4c-0.2,0.5-0.3,0.9-0.5,1.4
					c-0.5,1.2-0.7,2-0.7,2.6v0.2c0.1,0.5,0.2,0.8,0.5,1c0.1,0.1,0.2,0.1,0.3,0.1c0.3,0,0.6-0.3,0.9-0.8c0.3-0.6,0.6-1.2,0.8-2
					c0.1-0.2,0.2-0.4,0.4-0.5c0.2-0.1,0.4-0.2,0.6-0.2c0.3,0,0.5,0.1,0.8,0.2c0.2,0.2,0.4,0.4,0.4,0.7l-0.1,0.3
					c-0.4,1.2-0.8,2.3-1.4,3.3c-0.6,1.1-1.3,1.9-2.2,2.6C228.5,446.9,227.5,447.2,226.4,447.2z M222.8,440.6l0.3,0
					c0.3-1.1,0.6-2.2,1-3.3c-0.1-0.6-0.4-1-0.9-1.1l-0.2,0c-0.5,0-0.9,0.3-1.2,0.9c-0.3,0.6-0.4,1.3-0.4,1.9c0,0.4,0.1,0.7,0.2,1
					c0.1,0.3,0.4,0.5,0.7,0.5L222.8,440.6z"/>
				<path class="st5" d="M246.9,452.4c-0.3,0-0.6,0-0.8,0c-1.3-0.2-2.2-0.7-2.8-1.6c-0.6-0.9-0.8-1.9-0.8-3.1c0-1,0.2-2,0.5-3
					c1.5-4.3,2.6-8.7,3.4-13.2c0-0.2,0-0.4,0-0.6c0-0.6-0.1-1-0.3-1.2c-0.1-0.2-0.2-0.4-0.2-0.6c0-0.1,0-0.2,0.1-0.3
					c0.3-0.3,0.7-0.4,1.5-0.4c0.6,0,1.1,0.1,1.7,0.3c0.6,0.2,1.1,0.6,1.6,1.2s0.7,1.4,0.7,2.4l0,0.5c-0.1,1-0.3,2.1-0.6,3.1
					c0,0.1-0.1,0.3-0.1,0.4c1.5,0.6,2.6,1.6,3.3,3.1c1.5-0.5,2.5-1.5,3.1-2.8c0.3-0.4,0.6-0.7,1-0.7c0.3,0,0.5,0.1,0.8,0.3
					c0.2,0.2,0.3,0.4,0.3,0.7c0,0.1,0,0.3-0.1,0.4c-0.9,2-2.3,3.5-4.4,4.5c0.1,0.5,0.1,1,0.1,1.5c0,1.5-0.3,3-1,4.4
					c-0.6,1.4-1.6,2.6-2.7,3.5C249.9,452,248.5,452.4,246.9,452.4z M249,445.8c0.3,0,0.6-0.3,0.9-0.8c0.4-0.6,0.7-1.2,0.9-2.1
					c-0.4,0-0.8,0.1-1.2,0.1l-0.7,0c-0.1,0.8-0.3,1.6-0.4,2.5C248.7,445.7,248.9,445.8,249,445.8z M249.7,440.2l1.3-0.1
					c-0.1-0.4-0.2-0.7-0.3-1c-0.1-0.2-0.3-0.5-0.6-0.8L249.7,440.2z"/>
				<path class="st5" d="M262.5,447.3h-0.4c-1.4-0.1-2.4-0.6-2.9-1.4s-0.8-1.8-0.8-3.1c0-1.6,0.3-3.4,0.9-5.3s1.2-3.7,1.9-5.4
					c0.6-1.5,1-2.6,1.2-3.5c0.1-0.3,0.1-0.5,0.1-0.7c0-0.5-0.1-0.8-0.2-1c-0.1-0.2-0.1-0.4-0.1-0.5c0-0.1,0-0.2,0.1-0.3
					c0.3-0.3,0.8-0.4,1.5-0.4c0.5,0,1.1,0.1,1.6,0.3c0.6,0.2,1,0.6,1.5,1.1c0.4,0.5,0.6,1.2,0.6,2.1c0,0.3,0,0.6-0.1,0.9
					c-0.1,0.5-0.3,1.3-0.8,2.5c-0.4,1.2-0.9,2.6-1.3,4c-0.4,1.5-0.6,2.7-0.6,3.7c0,0.5,0.1,0.9,0.2,1.2c0.1,0.3,0.4,0.5,0.7,0.6
					l0.2,0c0.4,0,0.8-0.2,1.1-0.7c0.3-0.5,0.6-1.1,0.9-1.7c0.1-0.2,0.2-0.4,0.4-0.5c0.2-0.1,0.4-0.2,0.7-0.2c0.3,0,0.6,0.1,0.8,0.3
					c0.3,0.2,0.4,0.4,0.4,0.7l-0.1,0.3c-0.4,1.2-0.9,2.3-1.6,3.4c-0.7,1.1-1.5,1.9-2.4,2.6C265,446.9,263.8,447.3,262.5,447.3z"/>
				<path class="st5" d="M276.4,447.2c-1.9,0-3.6-0.7-4.9-2c-1.3-1.3-2-2.9-2-4.8l0-0.5c0.2-1.7,0.8-3.2,1.9-4.5
					c1.1-1.3,2.4-2.1,4-2.6c0.1,0,0.2,0,0.4,0c0.2,0,0.3,0,0.5,0.1c0.2,0.1,0.3,0.2,0.3,0.3c0.5-0.3,1-0.5,1.6-0.5
					c0.9,0,1.7,0.3,2.6,0.8c0.9,0.6,1.5,1.2,2,1.9c0.8,1.3,1.2,2.6,1.2,3.9c0,1.3-0.3,2.6-1,3.8c-0.7,1.2-1.6,2.2-2.8,2.9
					C279.1,446.8,277.8,447.2,276.4,447.2z M276.5,440.8c0.7,0,1.3-0.2,1.9-0.7c0.6-0.4,1-1,1.2-1.7c0.1-0.4,0.2-0.8,0.2-1.2
					c0-0.5-0.1-0.9-0.4-1.1c-0.2-0.2-0.5-0.3-0.8-0.3c-0.3,0-0.5,0.1-0.7,0.3c-0.2,0.2-0.3,0.4-0.3,0.8c0,0.2,0,0.4,0.1,0.6
					c0.1,0.2,0.2,0.3,0.4,0.3c0.2,0,0.4,0.1,0.6,0.1c0.1,0,0.2,0,0.2,0c0.1,0,0.1,0,0.1,0.1v0.1c0,0.2-0.2,0.5-0.7,0.8
					c-0.5,0.3-1,0.4-1.5,0.4c-0.5,0-1-0.2-1.5-0.7c-0.4-0.4-0.6-1-0.6-1.6c0-0.3,0-0.6,0.1-0.9c-0.6,0.7-0.9,1.5-0.9,2.2
					c0,0.6,0.2,1.1,0.5,1.6c0.3,0.5,0.8,0.8,1.5,0.9C276.2,440.8,276.3,440.8,276.5,440.8z"/>
				<path class="st5" d="M298.7,447.2h-0.3c-0.6,0-1.2-0.3-1.8-0.8c-0.6-0.5-1-1.1-1.3-1.9c-1.4,1.7-2.6,2.5-3.7,2.5h-0.3
					c-1.4-0.2-2.4-0.7-3-1.5c-0.6-0.8-0.8-1.7-0.8-2.8c0-1,0.2-2.1,0.5-3.2c0.3-1.1,0.7-2.2,1-3.1c0.5-1.3,0.8-2.2,0.8-2.8
					c0-0.1,0-0.2-0.1-0.3l0-0.3c0-0.2,0.1-0.4,0.3-0.5c0.6-0.4,1.4-0.6,2.2-0.6c0.3,0,0.6,0,0.9,0.1c0.7,0.1,1.2,0.4,1.5,0.9
					c0.3,0.4,0.4,0.9,0.4,1.5c0,0.6-0.1,1.2-0.3,2s-0.4,1.4-0.7,2.1c-0.5,1.2-0.7,2.1-0.7,2.7v0.2c0,0.3,0.2,0.6,0.3,0.8
					c0.2,0.2,0.4,0.3,0.6,0.3c0.2,0,0.3-0.1,0.4-0.2c0.1-0.1,0.4-0.7,0.8-1.7c0.4-1,0.8-2.2,1.1-3.4c0.4-1.3,0.5-2.3,0.5-3.1
					c0-0.3,0-0.5-0.1-0.7l0-0.2c0-0.2,0.1-0.4,0.3-0.5c0.6-0.3,1.2-0.4,1.8-0.4c0.8,0,1.5,0.2,2.2,0.7c0.7,0.4,1,1.1,1,2
					c0,0.2,0,0.4-0.1,0.7c-0.2,1-0.5,2-0.9,3c-0.5,1.1-0.7,2-0.7,2.6v0.1c0.1,0.5,0.2,0.8,0.5,1c0.1,0.1,0.3,0.1,0.4,0.1
					c0.4,0,0.8-0.3,1.1-1c0.4-0.7,0.7-1.5,1-2.5c-0.3-0.6-0.4-1.3-0.4-2.1c0-1,0.2-2.1,0.6-3.1c0.4-1,1-1.7,1.8-2.1
					c0.2-0.1,0.3-0.1,0.5-0.1c0.5,0,0.8,0.3,1,0.8c0.2,0.5,0.3,1.1,0.3,1.8c0,1.3-0.3,2.6-0.8,4c0.2,0,0.3,0.1,0.4,0.1
					c0.3,0,0.6-0.2,0.8-0.5c0.2-0.3,0.4-0.7,0.5-1.1c0.2-0.4,0.5-0.7,0.9-0.7h0.3c0.3,0,0.6,0.1,0.8,0.4c0.1,0.2,0.2,0.3,0.2,0.5
					c0,0.1,0,0.2-0.1,0.4c-0.3,0.9-0.9,1.7-1.6,2.3c-0.7,0.6-1.6,0.9-2.7,0.9h-0.2c-0.4,1.2-0.9,2.3-1.5,3.4c-0.6,1-1.4,1.8-2.4,2.4
					C301.3,446.9,300.1,447.2,298.7,447.2z"/>
				<path class="st5" d="M316.4,447.4h-0.2c-1.5,0-2.7-0.3-3.6-0.8c-0.9-0.6-1.6-1.3-2.1-2.2c-0.4-0.9-0.7-1.9-0.7-3
					c0-2,0.7-4,2.1-5.8s3.3-2.9,5.8-3.2l0.7,0c1.1,0,1.9,0.2,2.6,0.6c0.6,0.4,1.1,0.9,1.4,1.6c0.3,0.6,0.4,1.3,0.4,2.1
					c0,1-0.2,2-0.6,3c-0.4,1-0.9,1.8-1.6,2.5c-0.7,0.7-1.4,1-2.2,1c-0.7,0-1.5-0.4-2.3-1.2v0.2c0,0.6,0.2,1,0.6,1.5
					c0.4,0.4,0.9,0.6,1.5,0.6h0.3c2.3-0.4,3.9-1.9,4.8-4.5c0.3-0.4,0.6-0.7,1.1-0.7c0.3,0,0.6,0.1,0.8,0.3c0.2,0.2,0.4,0.4,0.4,0.7
					c0,0.1,0,0.2-0.1,0.4C323.9,444.9,320.9,447.3,316.4,447.4z M317.3,438.6c0.5,0,1-0.3,1.5-0.9c0.5-0.6,0.8-1.3,0.8-1.9
					c0-0.5-0.3-1-0.8-1.3h-0.1c-0.2,0-0.4,0.3-0.7,0.8c-0.3,0.5-0.6,1.1-0.8,1.7c-0.2,0.6-0.4,1.1-0.4,1.4
					C316.9,438.6,317.1,438.6,317.3,438.6z"/>
				<path class="st5" d="M332.5,447.3c-0.4,0-0.8-0.1-1.2-0.2c-1.2-0.3-2-0.8-2.4-1.5c-0.4-0.7-0.7-1.5-0.7-2.3c0-1,0.2-2,0.5-3
					c0.3-1.1,0.7-2.1,1.1-3c0.2-0.5,0.4-0.9,0.5-1.3c0-0.1-0.2-0.2-0.3-0.3c-0.2-0.1-0.3-0.2-0.5-0.2c-0.1,0-0.2,0-0.2-0.1
					c-0.4,1.9-1,3.8-2,5.8c-1,2-1.8,3.5-2.6,4.5c-0.2,0.2-0.4,0.3-0.7,0.3c-0.4,0-0.7-0.1-1.1-0.4c-0.3-0.3-0.5-0.6-0.5-0.9
					c0-0.2,0.1-0.4,0.3-0.6c1.2-1.3,2.2-2.8,2.9-4.5c0.7-1.7,1.3-3.4,1.6-5.1c-0.4-0.2-0.8-0.5-1-1.1c-0.3-0.6-0.4-1.1-0.4-1.7
					c0-0.5,0.1-0.9,0.3-1.3c0.2-0.4,0.6-0.6,1.1-0.6h0.1c0.6,0,1.1,0.2,1.4,0.5c0.3,0.3,0.5,0.7,0.7,1.2c0.1,0.5,0.2,1,0.2,1.5
					c0.7,0.3,1.4,0.6,2.1,0.8c0.7,0.2,1.3,0.4,1.8,0.7c0.6,0.3,1.1,0.7,1.3,1.2c0.2,0.4,0.4,0.9,0.4,1.5c0,0.9-0.2,1.7-0.5,2.6
					c-0.3,0.8-0.4,1.5-0.4,2c0,0.5,0.2,0.8,0.5,1.1c0.1,0.1,0.2,0.1,0.3,0.1c0.4,0,0.7-0.3,1.1-0.8c0.4-0.6,0.7-1.2,1-2
					c0.3-0.4,0.6-0.7,1.1-0.7c0.3,0,0.5,0.1,0.8,0.2c0.2,0.2,0.4,0.4,0.4,0.7c0,0.1,0,0.3-0.1,0.4c-0.4,1.2-1,2.3-1.6,3.4
					c-0.6,1.1-1.4,1.9-2.2,2.6C334.6,446.9,333.6,447.3,332.5,447.3z"/>
			</g>
		</g>
	</g>
</g>
</svg>
